<?xml version="1.0" encoding="UTF-8"?>
<svg viewBox="0 0 619.75 395.5625" xmlns="http://www.w3.org/2000/svg" xmlns:xlink="http://www.w3.org/1999/xlink">
 <defs>
  <linearGradient id="a">
   <stop stop-color="#fff" offset="0"/>
   <stop stop-color="#e6e6e6" offset="1"/>
  </linearGradient>
  <linearGradient id="f" x2="0" y1="-1912.7" y2="-1837.8" gradientUnits="userSpaceOnUse">
   <stop stop-color="#666" offset="0"/>
   <stop stop-color="#e6e6e6" stop-opacity="0" offset="1"/>
  </linearGradient>
  <linearGradient id="e" x1="561.31" x2="687.26" gradientUnits="userSpaceOnUse" xlink:href="#a"/>
  <linearGradient id="d" x1="424.2" x2="550.14" gradientUnits="userSpaceOnUse" xlink:href="#a"/>
  <linearGradient id="c" x1="287.08" x2="413.02" gradientUnits="userSpaceOnUse" xlink:href="#a"/>
  <linearGradient id="b" x1="149.96" x2="275.91" gradientUnits="userSpaceOnUse" xlink:href="#a"/>
 </defs>
 <g transform="translate(-105.25 2150.9)">
  <path d="m108.47-2150.4h613.32a2.7169 3.2778 0 0 1 2.7169 3.2778v388.01a2.7169 3.2778 0 0 1 -2.7169 3.2778h-613.32a2.7169 3.2778 0 0 1 -2.7169 -3.2778v-388.01a2.7169 3.2778 0 0 1 2.7169 -3.2778" stroke="#333" stroke-linecap="round" stroke-linejoin="round"/>
  <g transform="translate(-3.4768,11.29)">
   <path d="m162.16-1907.7c-6.4744 0-11.688 2.3096-11.688 5.1804v79.233c0 2.8708 5.2131 5.1804 11.688 5.1804h101.56c6.4744 0 11.688-2.3096 11.688-5.1804v-79.233c0-2.8708-5.2131-5.1804-11.688-5.1804h-101.56zm137.12 0c-6.4744 0-11.688 2.3096-11.688 5.1804v79.233c0 2.8708 5.2131 5.1804 11.688 5.1804h101.56c6.4744 0 11.688-2.3096 11.688-5.1804v-79.233c0-2.8708-5.2131-5.1804-11.688-5.1804h-101.56zm137.09 0c-6.4744 0-11.688 2.3096-11.688 5.1804v79.233c0 2.8708 5.2131 5.1804 11.688 5.1804h101.59c6.4744 0 11.688-2.3096 11.688-5.1804v-79.233c0-2.8708-5.2131-5.1804-11.688-5.1804h-101.59zm137.12 0c-6.4744 0-11.688 2.3096-11.688 5.1804v79.233c0 2.8708 5.2131 5.1804 11.688 5.1804h101.56c6.4744 0 11.688-2.3096 11.688-5.1804v-79.233c0-2.8708-5.2131-5.1804-11.688-5.1804h-101.56z" fill="url(#f)" opacity=".77"/>
   <g transform="translate(-.0012,-2.5914)">
    <path d="m573.5-2107.7h101.57c6.4744 0 11.687 5.2002 11.687 11.66v178.28c0 6.4594-5.2123 11.659-11.687 11.659h-101.57c-6.4744 0-11.687-5.1999-11.687-11.659v-178.28c0-6.4594 5.2123-11.66 11.687-11.66z" fill="url(#e)" stroke="#000" stroke-linecap="round" stroke-linejoin="round"/>
    <path d="m624.28-2032.9c-2.8706 5.5929-5.2908 10.776-8.4954 14.95s-7.1806 7.3276-11.474 11.067c4.293 3.7397 8.269 6.8926 11.474 11.067 3.2047 4.1751 5.6249 9.3547 8.4954 14.947 2.8706-5.5926 5.2908-10.772 8.4954-14.947 3.2046-4.1746 7.183-7.3275 11.476-11.067-4.293-3.7398-8.2714-6.8927-11.476-11.067s-5.6249-9.3576-8.4954-14.95z" fill="#800000"/>
    <path d="m580.52-2075.4c-0.9092 1.7714-1.6757 3.4127-2.6906 4.7349s-2.2742 2.3209-3.6339 3.5052c1.3597 1.1846 2.6189 2.1831 3.6339 3.5051 1.015 1.3225 1.7815 2.9628 2.6906 4.7342 0.9091-1.7714 1.6757-3.4117 2.6906-4.7342s2.275-2.3205 3.6346-3.5051c-1.3597-1.1843-2.6197-2.183-3.6346-3.5052s-1.7815-2.9635-2.6906-4.7349z" fill="#800000"/>
    <g transform="matrix(2.5351 0 0 2.5292 -638.87 3086.9)" fill="#800000" font-family="Sans" font-size="10.287" letter-spacing="0" word-spacing="0">
     <path d="m479.4865-2045.3305h2.7525l-1.3762-3.5661-1.3762,3.5661m-2.1196,2.7173v-.5324h.658l2.6721-6.9665h.8438l2.6771,6.9665h.7383v.5324h-2.7273v-.5324h.8338l-.6279-1.6474h-3.1543l-.6279,1.6474h.8237v.5324h-2.1096" fill="#800000"/>
    </g>
    <path d="m667.23-1938.4c-0.9092-1.7714-1.6757-3.4127-2.6906-4.7349s-2.2742-2.3209-3.6339-3.5052c1.3597-1.1846 2.6189-2.1831 3.6339-3.5054 1.0149-1.3222 1.7815-2.9628 2.6906-4.7339 0.9092 1.7711 1.6757 3.4117 2.6906 4.7339s2.275 2.3208 3.6347 3.5054c-1.3597 1.1843-2.6197 2.1828-3.6347 3.5052-1.0149 1.3222-1.7815 2.9635-2.6906 4.7349z" fill="#800000"/>
    <g transform="matrix(2.5351 0 0 -2.5292 -638.87 3086.9)" fill="#800000" font-family="Sans" font-size="10.287" letter-spacing="0" word-spacing="0">
     <path d="m513.691,1982.6755h2.7525l-1.3762-3.5661-1.3762,3.5661m-2.1196,2.7173v-.5324h.658l2.6721-6.9665h.8438l2.6771,6.9665h.7383v.5324h-2.7273v-.5324h.8338l-.6279-1.6475h-3.1543l-.6279,1.6475h.8237v.5324h-2.1096" fill="#800000"/>
    </g>
    <path d="m162.15-2107.7h101.57c6.4744 0 11.687 5.2002 11.687 11.66v178.28c0 6.4594-5.2123 11.659-11.687 11.659h-101.57c-6.4744 0-11.687-5.1999-11.687-11.659v-178.28c0-6.4594 5.2123-11.66 11.687-11.66z" fill="url(#b)" stroke="#000" stroke-linecap="round" stroke-linejoin="round"/>
    <g transform="matrix(2.5351 0 0 2.5292 -638.87 3086.9)" fill="#800000" font-family="Sans" font-size="10.287" letter-spacing="0" word-spacing="0">
     <path d="m317.2257-2045.3305h2.7525l-1.3762-3.5661-1.3762,3.5661m-2.1196,2.7173v-.5324h.658l2.6721-6.9665h.8438l2.6771,6.9665h.7383v.5324h-2.7273v-.5324h.8338l-.6278-1.6474h-3.1543l-.6279,1.6474h.8237v.5324h-2.1096" fill="#800000"/>
    </g>
    <path d="m166.4155-2075.3704c-1.3862.035-2.264,1.2142-2.693,2.2717-.8888,2.1465-.4051,4.5183.5432,6.577 1.279,2.7948 3.2248,5.3 5.3444,7.6307 2.2028-2.4649 4.1163-5.179 5.3645-8.1431 .3224-.7745.7366-1.529.8347-2.3644 .2719-1.7916-.005-3.8041-1.3608-5.2178-.6759-.7384-1.9582-1.0222-2.8539-.4288-1.3641.8815-1.8621,2.4598-1.9928,3.8952-.1657-.7893-.2758-1.6169-.6794-2.3535-.4594-.9043-1.2998-1.8561-2.5067-1.867z" fill="#800000"/>
    <path d="m204.81-2028.3c-3.5588 0.095-5.8124 3.1482-6.914 5.8892-2.2819 5.5654-1.0402 11.714 1.3946 17.052 3.2837 7.2456 8.2793 13.74 13.721 19.783 5.6555-6.3898 10.568-13.427 13.773-21.111 0.8277-2.0073 1.8911-3.964 2.1429-6.1293 0.698-4.6453-0.0123-9.8628-3.4937-13.527-1.7353-1.9142-5.0275-2.6499-7.327-1.112-3.5022 2.2856-4.7805 6.377-5.1163 10.098-0.4252-2.0456-0.7081-4.191-1.7443-6.1006-1.1794-2.345-3.337-4.8124-6.4356-4.8408z" fill="#800000" stroke="#800000"/>
    <g transform="matrix(2.5351 0 0 -2.5292 -638.87 3086.9)" fill="#800000" font-family="Sans" font-size="10.287" letter-spacing="0" word-spacing="0">
     <path d="m351.4302,1982.6755h2.7525l-1.3762-3.5661-1.3762,3.5661m-2.1196,2.7173v-.5324h.658l2.6721-6.9665h.8438l2.6771,6.9665h.7383v.5324h-2.7273v-.5324h.8338l-.6278-1.6475h-3.1543l-.6278,1.6475h.8237v.5324h-2.1096" fill="#800000"/>
    </g>
    <path d="m253.1282-1938.4221c-1.3862-.035-2.264-1.2142-2.693-2.2717-.8888-2.1465-.4052-4.5183.5432-6.577 1.279-2.7948 3.2248-5.3 5.3444-7.6307 2.2028,2.4647 4.1163,5.179 5.3645,8.1431 .3224.7744.7366,1.529.8347,2.3644 .2719,1.7916-.005,3.8041-1.3608,5.2178-.6759.7384-1.9582,1.0222-2.8539.4288-1.3641-.8815-1.862-2.4598-1.9928-3.8952-.1657.7893-.2758,1.6169-.6794,2.3534-.4594.9044-1.2998,1.8562-2.5067,1.8671z" fill="#800000"/>
    <path d="m299.27-2107.7h101.57c6.4744 0 11.687 5.2002 11.687 11.66v178.28c0 6.4594-5.2122 11.659-11.687 11.659h-101.57c-6.4744 0-11.687-5.1999-11.687-11.659v-178.28c0-6.4594 5.2123-11.66 11.687-11.66z" fill="url(#c)" stroke="#000" stroke-linecap="round" stroke-linejoin="round"/>
    <g transform="matrix(2.5351 0 0 2.5292 -638.87 3086.9)" font-family="Sans" font-size="10.287" letter-spacing="0" word-spacing="0">
     <path d="m371.3126-2045.3305h2.7525l-1.3762-3.5661-1.3762,3.5661m-2.1196,2.7173v-.5324h.658l2.6721-6.9665h.8438l2.6771,6.9665h.7383v.5324h-2.7273v-.5324h.8338l-.6278-1.6474h-3.1543l-.6278,1.6474h.8237v.5324h-2.1096"/>
    </g>
    <path d="m306.6956-2075.3704c-.8092,0-1.62.3215-2.2374.9592-1.2348,1.2753-1.2348,3.3404 0,4.6158 .1258.1294.2593.2488.3993.352-.4032-.1928-.8508-.3009-1.3243-.3009-1.7463,0-3.1624,1.4632-3.1624,3.267s1.4162,3.2625 3.1624,3.2625c.9728,0 1.8432-.4545 2.4232-1.1677-.1311,1.8962-.4726,3.7287-1.2729,5.4915h4.0242c-.892-1.6518-1.2438-3.5648-1.3559-5.5935 .5782.7726 1.4833,1.2697 2.5023,1.2697 1.7463,0 3.1664-1.4586 3.1664-3.2625s-1.4201-3.267-3.1664-3.267c-.4716,0-.9184.1062-1.3203.2964 .1387-.1048.2708-.2183.3953-.3475 1.2348-1.2754 1.2348-3.3405 0-4.6158-.6174-.6377-1.4243-.9592-2.2335-.9592z"/>
    <path d="m350.052-2032.9126c-2.555,0-5.1151,1.0155-7.0645,3.0291-3.8988,4.027-3.8988,10.5465 0,14.5738 .3969.4099.8187.7855 1.2606,1.1119-1.2731-.6084-2.6863-.9509-4.1813-.9509-5.5138,0-9.9851,4.62-9.9851,10.3157s4.4713,10.301 9.9851,10.301c3.0714,0 5.8196-1.4353 7.6511-3.6873-.4137,5.9877-1.4922,11.7739-4.019,17.3394h12.7061c-2.8165-5.2157-3.9271-11.2556-4.2811-17.6613 1.8258,2.4394 4.6834,4.0092 7.9007,4.0092 5.5138,0 9.9976-4.6056 9.9976-10.301s-4.4838-10.3157-9.9976-10.3157c-1.4889,0-2.8996.3326-4.1688.9362 .4376-.324.8548-.6909 1.2481-1.0972 3.8988-4.0273 3.8988-10.5468 0-14.5738-1.9494-2.0136-4.497-3.0291-7.052-3.0291z"/>
    <g transform="matrix(2.5351 0 0 -2.5292 -638.87 3086.9)" font-family="Sans" font-size="10.287" letter-spacing="0" word-spacing="0">
     <path d="m405.5171,1982.6755h2.7525l-1.3762-3.5661-1.3762,3.5661m-2.1196,2.7173v-.5324h.658l2.6721-6.9665h.8438l2.6771,6.9665h.7383v.5324h-2.7273v-.5324h.8338l-.6279-1.6475h-3.1543l-.6279,1.6475h.8237v.5324h-2.1096"/>
    </g>
    <path d="m393.4083-1938.4221c-.8092,0-1.62-.3215-2.2374-.9592-1.2348-1.2754-1.2348-3.3404 0-4.6158 .1258-.1294.2593-.2488.3993-.352-.4032.1928-.8508.3009-1.3243.3009-1.7463,0-3.1625-1.4632-3.1625-3.267s1.4162-3.2627 3.1625-3.2627c.9728,0 1.8432.4547 2.4232,1.1679-.1311-1.8962-.4726-3.7287-1.2729-5.4915h4.0242c-.8921,1.6518-1.2438,3.5648-1.3559,5.5935 .5783-.7726 1.4833-1.2699 2.5023-1.2699 1.7463,0 3.1664,1.4588 3.1664,3.2627s-1.4201,3.267-3.1664,3.267c-.4716,0-.9184-.1062-1.3203-.2964 .1387.1035.2707.2183.3953.3475 1.2348,1.2754 1.2348,3.3404 0,4.6158-.6174.6377-1.4243.9592-2.2335.9592z"/>
    <path d="m436.38-2107.7h101.57c6.4744 0 11.687 5.2002 11.687 11.66v178.28c0 6.4594-5.2122 11.659-11.687 11.659h-101.57c-6.4744 0-11.687-5.1999-11.687-11.659v-178.28c0-6.4594 5.2123-11.66 11.687-11.66z" fill="url(#d)" stroke="#000" stroke-linecap="round" stroke-linejoin="round"/>
    <path d="m441.8007-2058.8913c1.1985-2.0196 1.3716-4.1599 1.3401-6.4031-.5783.7712-1.4777,1.2693-2.4904,1.2693-1.6919,0-3.0738-1.3862-3.1585-3.127l0,0c-.003-.053-.005-.1062-.005-.16 0,0-3e-005,0 0-.026 8e-005,0-.0004-.026 0-.035 .001-.056.005-.1144.008-.1701 .0203-.3076.0789-.6037.1738-.8827 .003,0 .008-.026.0122-.029 .938-2.9541 5.0411-6.069 6.1627-6.9172 1.1875.8772 4.1607,3.3833 5.5263,5.8996h.005c.475.5767.763,1.3257.763,2.145 0,1.8199-1.4159,3.2974-3.1624,3.2974-1.0393,0-1.9615-.5231-2.5379-1.3295-.0652,2.3462.0858,4.6194 1.3875,6.4633h-4.0242z"/>
    <g transform="matrix(2.5351 0 0 2.5292 -638.87 3086.9)" font-family="Sans" font-size="10.287" letter-spacing="0" word-spacing="0">
     <path d="m425.3995-2045.3305h2.7525l-1.3762-3.5661-1.3762,3.5661m-2.1196,2.7173v-.5324h.658l2.6721-6.9665h.8438l2.6771,6.9665h.7383v.5324h-2.7273v-.5324h.8338l-.6278-1.6474h-3.1543l-.6278,1.6474h.8237v.5324h-2.1096"/>
    </g>
    <path d="m480.8163-1980.8802c3.7843-6.3769 4.3307-13.1349 4.2311-20.2174-1.8261,2.4359-4.6655,4.0078-7.8632,4.0078-5.3421,0-9.7051-4.3767-9.9725-9.8738-.001,0 .001-.026 0-.026-.008-.1674-.0122-.3334-.0122-.5035 0-.026-4e-005-.041 0-.056 .0003-.041-.001-.071 0-.1117 .003-.1777.0122-.3607.0253-.5374 .0619-.9716.2486-1.9069.5492-2.7873 .01-.03.0271-.061.0374-.088 2.9616-9.3276 15.9166-19.1623 19.4583-21.8405 3.7492,2.7693 13.1369,10.6823 17.4488,18.6278h.0122c1.4999,1.82 2.4089,4.1853 2.4089,6.7727 0,5.7459-4.4706,10.4108-9.985,10.4108-3.2815,0-6.1934-1.6516-8.013-4.1978-.2054,7.4077.2712,14.5854 4.3809,20.4074h-12.7059z"/>
    <path d="m528.5134-1954.9012c1.1986,2.0196 1.3716,4.1599 1.3401,6.4031-.5784-.7712-1.4777-1.2693-2.4904-1.2693-1.6919,0-3.0738,1.3862-3.1585,3.127l0,0c-.003.053-.005.1062-.005.1599 0,0-3e-005,0 0,.026 7e-005,0-.0004.026 0,.035 .001.056.005.1143.008.17 .0203.3076.0788.6038.1738.8828 .003,0 .008.026.0122.029 .938,2.9541 5.041,6.0689 6.1627,6.9172 1.1874-.8772 4.1607-3.3833 5.5263-5.8996h.005c.475-.5767.763-1.3258.763-2.1451 0-1.8198-1.4159-3.2973-3.1624-3.2973-1.0393,0-1.9615.5231-2.5379,1.3295-.0652-2.3463.086-4.6194 1.3875-6.4634h-4.0242z"/>
    <g transform="matrix(2.5351 0 0 -2.5292 -638.87 3086.9)" font-family="Sans" font-size="10.287" letter-spacing="0" word-spacing="0">
     <path d="m459.604,1982.6755h2.7525l-1.3762-3.5661-1.3762,3.5661m-2.1196,2.7173v-.5324h.658l2.6721-6.9665h.8438l2.6771,6.9665h.7383v.5324h-2.7274v-.5324h.8338l-.6278-1.6475h-3.1543l-.6278,1.6475h.8237v.5324h-2.1096"/>
    </g>
   </g>
  </g>
 </g>
</svg>
