<?xml version="1.0" encoding="UTF-8"?>
<svg viewBox="0 0 640 480" xmlns="http://www.w3.org/2000/svg" xmlns:xlink="http://www.w3.org/1999/xlink">
 <defs>
  <linearGradient id="w" x1="-5.941" x2="-6.3149" y1="14.736" y2="14.736" gradientTransform="matrix(1.3256 0 0 .75436 6.875 -14.347)" xlink:href="#a"/>
  <linearGradient id="x" x1=".2294" x2="1.0527" y1=".44852" y2=".44852" gradientTransform="scale(.92032 1.0866)" xlink:href="#q"/>
  <linearGradient id="ad" x1="-.59853" x2=".59419" y1="-1.2527" y2="-1.2527" gradientTransform="matrix(1.094 0 0 .91411 .74054 127.91)" xlink:href="#a"/>
  <linearGradient id="aa" x1="-.26127" x2=".59967" y1="1.9099" y2="1.9099" gradientTransform="scale(1.094 .91411)" xlink:href="#a"/>
  <linearGradient id="ab" x1="-7.1423" x2="-6.5823" y1="15.279" y2="15.279" gradientTransform="scale(1.5104 .66208)" xlink:href="#a"/>
  <linearGradient id="ac" x1="-4.9961" x2="-4.3448" y1="14.196" y2="14.196" gradientTransform="matrix(1.5104 0 0 .66208 -75.5 -1.75)" xlink:href="#a"/>
  <linearGradient id="z" x1=".54164" x2="1.4504" y1=".46741" y2=".46741" gradientTransform="scale(.96184 1.0397)" xlink:href="#s"/>
  <linearGradient id="v" x1=".54083" x2="1.2192" y1=".47711" y2=".47711" gradientTransform="scale(.9172 1.0903)" xlink:href="#q"/>
  <linearGradient id="r">
   <stop stop-color="#fff" offset="0"/>
   <stop stop-color="#fff" stop-opacity="0" offset="1"/>
  </linearGradient>
  <linearGradient id="q">
   <stop offset="0"/>
   <stop stop-color="#333" stop-opacity=".8" offset="1"/>
  </linearGradient>
  <linearGradient id="u" x1="-2.7013" x2="-3.1973" y1="6.0357" y2="6.0357" gradientTransform="matrix(1.1433 0 0 .8747 9.5789 7.1127)" xlink:href="#r"/>
  <linearGradient id="a">
   <stop stop-color="#fff" offset="0"/>
   <stop stop-color="#fff" stop-opacity=".8" offset="1"/>
  </linearGradient>
  <linearGradient id="s">
   <stop stop-color="#f33" offset="0"/>
   <stop stop-color="#f33" stop-opacity="0" offset="1"/>
  </linearGradient>
  <linearGradient id="t" x1="-6.45" x2="-7.0953" y1="4.1343" y2="4.1343" gradientTransform="matrix(1.1433 0 0 .8747 62.05 53.988)" xlink:href="#r"/>
  <linearGradient id="y" x1="1.5532" x2="2.6096" y1="-.58891" y2="-.58891" gradientTransform="matrix(.91258 0 0 1.0958 -159.61 160.54)" xlink:href="#s"/>
  <linearGradient id="ae" x1="6.7206" x2="5.7251" y1="-5.5071" y2="-5.5071" gradientTransform="matrix(.80876 0 0 1.2365 -159.61 160.54)" xlink:href="#a"/>
 </defs>
 <g fill-rule="evenodd">
  <g stroke="#000" stroke-linecap="round" stroke-linejoin="round">
   <path d="m84.684 286.75c0-14.638 11.033-26.423 24.738-26.423l172.76 1.4121 1.4255 167.31c0 14.638-11.033 26.423-24.738 26.423l-148.28-1.1419c-13.705 0-24.738-11.785-24.738-26.423l-1.1725-141.15z" fill="none" stroke-dashoffset=".625" stroke-width="3.452"/>
   <path d="m183.79 435.63c15.436-33.167 49.492-62.224 81.16-78.652-31.987-17.203-65.883-49.107-82.115-81.189-17.664 32.547-48.219 64.916-82.592 79.794 33.26 18.288 64.61 45.95 83.547 80.047z" fill="url(#y)" stroke-width="2.5"/>
  </g>
  <path d="m184.62 286.63c6.1424 13.69 27.263 32.425 37.758 45.289-9.9458-9.3291-34.835-31.508-37.758-45.289z" fill="#fff" fill-opacity=".8" stroke="url(#ae)" stroke-width=".312"/>
  <g stroke="#000">
   <g stroke-dashoffset=".625" stroke-linecap="round" stroke-linejoin="round">
    <path d="m417.32 275.35c-32.681 0-49.316 31.903-16.411 63.95-32.932-32.073-66.107-16.005-66.107 17.174 0 33.2 33.843 48.292 66.388 17.356 16.604 31.622-36.052 32.16-36.052 62.504 26.421-0.12506 73.67 0.1536 100.09 0.028534 0-31.269-46.612-29.965-30.946-62.145 32.628 30.64 66.544 14.206 66.544-18.309 0-32.8-33.358-48.408-66.526-16.104 33.071-32.208 15.992-64.455-16.981-64.455z" fill="url(#v)" stroke-width="2.5"/>
    <path d="m520.14 286.74c0-14.638-11.033-26.423-24.738-26.423l-175.69 0.2703-0.8393 167.88c0 14.638 11.033 26.423 24.738 26.423h151.21c13.705 0 24.738-11.784 24.738-26.423l0.5863-141.72z" fill="none" stroke-width="3.452"/>
   </g>
   <g stroke-width=".312">
    <path d="m475.83 326.57c9.5638-0.43671 17.366 8.9171 17.188 14.334-4.503-7.7718-10.469-11.339-17.188-14.334z" fill="url(#t)"/>
    <path d="m425.37 280.41c12.258-0.43671 21.097 10.633 22.37 17.463-5.1248-7.1662-11.609-14.67-22.37-17.463z" fill="url(#u)"/>
    <path d="m439.76 403.98c4.5893 5.4174 17.049 13.309 19.151 19.938-5.643-5.5513-17.717-13.006-19.151-19.938z" fill="url(#w)"/>
   </g>
   <g stroke-linecap="round" stroke-linejoin="round">
    <g fill="none" stroke-dashoffset=".625" stroke-width="3.452">
     <path d="m520.27 200.99c0 14.638-11.033 26.423-24.738 26.423l-175.69-0.2702-0.8392-167.88c0-14.638 11.033-26.423 24.738-26.423h151.21c13.705 0 24.738 11.784 24.738 26.423l0.5863 141.72z"/>
     <path d="m81.476 201.47c0 14.638 11.033 26.423 24.738 26.423l175.69-0.2702 0.8392-167.88c0-14.638-11.033-26.423-24.738-26.423h-151.21c-13.705 0-24.738 11.785-24.738 26.423l-0.5863 141.72z"/>
    </g>
    <path d="m130.99 211.91c25.952 0.22838 74.884 0.45677 100.84 0.68515 1.0162-29.614-47.876-34.216-30.72-62.349 76.528 48.488 72.452-57.183-18.995-101.4-90.284 48.938-90.023 150.22-14.07 101.17 14.771 29.503-36.426 33.192-37.051 61.892z" fill="url(#x)" stroke-width="2.5"/>
   </g>
   <path d="m191.02 58.752c15.501 5.2843 32.524 20.989 42.913 38.971-9.8801-13.346-27.906-29.481-42.913-38.971z" fill="url(#aa)"/>
   <path d="m420.2 213.93c18.806-40.336 69.864-69.457 75.352-108.69 1.5608-45.276-56.747-64.746-75.711-17.62-14.664-46.539-74.081-29.75-74.304 16.51 4.4837 40.413 57.985 68.93 74.663 109.8z" fill="url(#z)" stroke-linecap="round" stroke-linejoin="round" stroke-width="2.5"/>
   <path d="m460.69 64.149c13.21 2.8929 19.854 8.2979 23.685 17.129-6.8006-7.4606-13.523-12.333-23.685-17.129z" fill="url(#ab)"/>
   <path d="m393.26 63.448c12.507 4.0348 16.531 9.652 20.361 18.483-5.628-7.4606-10.903-12.545-20.361-18.483z" fill="url(#ac)"/>
   <path d="m198.35 172.69c13.512 9.1601 22.243 13.238 30.974 31.542-9.8801-13.346-20.278-18.499-30.974-31.542z" fill="url(#ad)"/>
  </g>
 </g>
</svg>
